<svg width="1335" height="800" viewBox="0 0 1335 800" fill="none" xmlns="http://www.w3.org/2000/svg">
<rect width="1335" height="800" fill="black"/>
<path d="M269.5 565V235H603.5L481.59 400L603.5 565H269.5Z" stroke="white" stroke-width="20"/>
<path d="M632.602 452H703.375V433.744H654.744V408.739H699.54V390.483H654.744V365.528H703.17V347.273H632.602V452ZM720.365 481.455H742.149V439.42H742.814C745.831 445.966 752.428 453.278 765.109 453.278C783.007 453.278 796.967 439.114 796.967 412.83C796.967 385.83 782.393 372.432 765.161 372.432C752.018 372.432 745.729 380.256 742.814 386.648H741.842V373.455H720.365V481.455ZM741.689 412.727C741.689 398.716 747.621 389.767 758.206 389.767C768.996 389.767 774.723 399.125 774.723 412.727C774.723 426.432 768.893 435.943 758.206 435.943C747.723 435.943 741.689 426.739 741.689 412.727ZM846.979 453.534C870.808 453.534 885.638 437.222 885.638 413.034C885.638 388.693 870.808 372.432 846.979 372.432C823.149 372.432 808.32 388.693 808.32 413.034C808.32 437.222 823.149 453.534 846.979 453.534ZM847.081 436.659C836.087 436.659 830.462 426.585 830.462 412.881C830.462 399.176 836.087 389.051 847.081 389.051C857.871 389.051 863.496 399.176 863.496 412.881C863.496 426.585 857.871 436.659 847.081 436.659ZM935.291 453.534C956.206 453.534 969.348 441.261 970.371 423.21H949.814C948.536 431.597 943.013 436.301 935.547 436.301C925.371 436.301 918.774 427.761 918.774 412.727C918.774 397.898 925.422 389.409 935.547 389.409C943.524 389.409 948.638 394.676 949.814 402.5H970.371C969.45 384.347 955.695 372.432 935.189 372.432C911.359 372.432 896.632 388.949 896.632 413.034C896.632 436.915 911.104 453.534 935.291 453.534ZM1006.1 406.591C1006.15 396.466 1012.34 390.534 1021.24 390.534C1030.09 390.534 1035.3 396.21 1035.25 405.875V452H1057.03V401.989C1057.09 383.58 1046.24 372.432 1029.88 372.432C1017.97 372.432 1009.99 378.057 1006.41 387.312H1005.49V347.273H984.318V452H1006.1V406.591Z" fill="white"/>
</svg>
