<svg width="3240" height="2160" viewBox="0 0 3240 2160" fill="none" xmlns="http://www.w3.org/2000/svg">
<rect width="3240" height="2160" fill="black"/>
<path d="M781 1638L781 521H2459L2243.58 1079.5L2459 1638H781Z" stroke="white" stroke-width="60"/>
<path d="M1131.08 1196.55V1328.78C1131.08 1352.72 1114.31 1370 1088.53 1370C1062.86 1370 1045.99 1352.72 1045.99 1328.78V1196.55H1001.7V1332.57C1001.7 1378.39 1036.27 1408.97 1088.53 1408.97C1140.59 1408.97 1175.36 1378.39 1175.36 1332.57V1196.55H1131.08Z" fill="white"/>
<path d="M1417.7 1406H1461.99V1331.75H1494.31L1533.99 1406H1582.88L1538.39 1324.59C1562.22 1314.36 1575.41 1293.6 1575.41 1264.97C1575.41 1223.34 1547.9 1196.55 1500.34 1196.55H1417.7V1406ZM1461.99 1296.16V1232.75H1491.85C1517.42 1232.75 1529.8 1244.1 1529.8 1264.97C1529.8 1285.73 1517.42 1296.16 1492.06 1296.16H1461.99Z" fill="white"/>
<rect width="182" height="265" transform="translate(1793.5 1169)" fill="white"/>
<path d="M983.205 997H1072.69C1119.74 997 1144.8 972.455 1144.8 939.114C1144.8 908.125 1122.6 889.409 1098.77 888.284V886.239C1120.56 881.33 1136.61 865.886 1136.61 841.239C1136.61 809.841 1113.3 787.545 1067.07 787.545H983.205V997ZM1027.49 960.795V905.159H1064.61C1085.89 905.159 1099.08 917.432 1099.08 934.716C1099.08 950.466 1088.34 960.795 1063.59 960.795H1027.49ZM1027.49 875.193V823.341H1061.14C1080.77 823.341 1091.92 833.466 1091.92 848.602C1091.92 865.17 1078.42 875.193 1060.32 875.193H1027.49Z" fill="white"/>
<path d="M1415.31 997L1430.85 949.239H1506.43L1521.98 997H1569.43L1497.23 787.545H1440.16L1367.85 997H1415.31ZM1442.1 914.67L1467.88 835.409H1469.51L1495.28 914.67H1442.1Z" fill="white"/>
<path d="M1975.4 787.545H1931.32V919.273H1929.48L1839.07 787.545H1800.2V997H1844.49V865.17H1846.02L1937.15 997H1975.4V787.545Z" fill="white"/>
</svg>
