<svg width="1335" height="800" viewBox="0 0 1335 800" fill="none" xmlns="http://www.w3.org/2000/svg">
<rect width="1335" height="800" fill="black"/>
<path d="M375 565V235H709L587.09 400L709 565H375Z" stroke="white" stroke-width="20"/>
<path d="M830.506 383.938C827.591 359.75 809.284 345.841 785.045 345.841C757.381 345.841 736.261 365.375 736.261 399.636C736.261 433.795 757.023 453.432 785.045 453.432C811.892 453.432 828.102 435.585 830.506 416.307L808.108 416.205C806.011 427.403 797.216 433.847 785.403 433.847C769.5 433.847 758.71 422.034 758.71 399.636C758.71 377.852 769.347 365.426 785.557 365.426C797.676 365.426 806.42 372.432 808.108 383.938H830.506ZM846.384 452H913.423V433.744H868.526V347.273H846.384V452ZM950.229 347.273H928.087V452H950.229V347.273Z" fill="white"/>
</svg>
